{
	"asset":{
		"generator":"Khronos glTF Blender I/O v5.0.21",
		"version":"2.0"
	},
	"scene":0,
	"scenes":[
		{
			"name":"Scene",
			"nodes":[
				2
			]
		}
	],
	"nodes":[
		{
			"mesh":0,
			"name":"Long_Ax_1.001"
		},
		{
			"children":[
				0
			],
			"name":"Long_Ax_1",
			"scale":[
				0.009999999776482582,
				0.009999999776482582,
				0.009999999776482582
			]
		},
		{
			"children":[
				1
			],
			"name":"RootNode"
		}
	],
	"materials":[
		{
			"emissiveFactor":[
				1,
				1,
				1
			],
			"name":"TX_Long_Ax_1",
			"pbrMetallicRoughness":{
				"baseColorTexture":{
					"index":0
				}
			}
		}
	],
	"meshes":[
		{
			"name":"Long_Ax_1",
			"primitives":[
				{
					"attributes":{
						"POSITION":0,
						"NORMAL":1,
						"TEXCOORD_0":2
					},
					"indices":3,
					"material":0
				}
			]
		}
	],
	"textures":[
		{
			"sampler":0,
			"source":0
		}
	],
	"images":[
		{
			"mimeType":"image/png",
			"name":"TX_Long_Ax_1_baseColor",
			"uri":"TX_Long_Ax_1_baseColor.png"
		}
	],
	"accessors":[
		{
			"bufferView":0,
			"componentType":5126,
			"count":2355,
			"max":[
				14.002639770507812,
				135.32220458984375,
				1.8724021911621094
			],
			"min":[
				-14.002634048461914,
				-0.01342010498046875,
				-1.8402671813964844
			],
			"type":"VEC3"
		},
		{
			"bufferView":1,
			"componentType":5126,
			"count":2355,
			"type":"VEC3"
		},
		{
			"bufferView":2,
			"componentType":5126,
			"count":2355,
			"type":"VEC2"
		},
		{
			"bufferView":3,
			"componentType":5123,
			"count":11172,
			"type":"SCALAR"
		}
	],
	"bufferViews":[
		{
			"buffer":0,
			"byteLength":28260,
			"byteOffset":0,
			"target":34962
		},
		{
			"buffer":0,
			"byteLength":28260,
			"byteOffset":28260,
			"target":34962
		},
		{
			"buffer":0,
			"byteLength":18840,
			"byteOffset":56520,
			"target":34962
		},
		{
			"buffer":0,
			"byteLength":22344,
			"byteOffset":75360,
			"target":34963
		}
	],
	"samplers":[
		{
			"magFilter":9729,
			"minFilter":9987
		}
	],
	"buffers":[
		{
			"byteLength":97704,
			"uri":"Long_Ax_1.bin"
		}
	]
}
