{
	"asset":{
		"generator":"Khronos glTF Blender I/O v5.0.21",
		"version":"2.0"
	},
	"scene":0,
	"scenes":[
		{
			"name":"Scene",
			"nodes":[
				0
			]
		}
	],
	"nodes":[
		{
			"mesh":0,
			"name":"Suzanne"
		}
	],
	"materials":[
		{
			"doubleSided":true,
			"name":"Material.001",
			"pbrMetallicRoughness":{
				"baseColorFactor":[
					0.8000074625015259,
					0.11860454827547073,
					0.5741593241691589,
					1
				],
				"metallicFactor":0,
				"roughnessFactor":0.5
			}
		}
	],
	"meshes":[
		{
			"name":"Suzanne",
			"primitives":[
				{
					"attributes":{
						"POSITION":0,
						"NORMAL":1,
						"TEXCOORD_0":2
					},
					"indices":3,
					"material":0
				}
			]
		}
	],
	"accessors":[
		{
			"bufferView":0,
			"componentType":5126,
			"count":1966,
			"max":[
				136.71875,
				312.1602783203125,
				109.95382690429688
			],
			"min":[
				-136.71875,
				148.8685302734375,
				-101.41839599609375
			],
			"type":"VEC3"
		},
		{
			"bufferView":1,
			"componentType":5126,
			"count":1966,
			"type":"VEC3"
		},
		{
			"bufferView":2,
			"componentType":5126,
			"count":1966,
			"type":"VEC2"
		},
		{
			"bufferView":3,
			"componentType":5123,
			"count":2904,
			"type":"SCALAR"
		}
	],
	"bufferViews":[
		{
			"buffer":0,
			"byteLength":23592,
			"byteOffset":0,
			"target":34962
		},
		{
			"buffer":0,
			"byteLength":23592,
			"byteOffset":23592,
			"target":34962
		},
		{
			"buffer":0,
			"byteLength":15728,
			"byteOffset":47184,
			"target":34962
		},
		{
			"buffer":0,
			"byteLength":5808,
			"byteOffset":62912,
			"target":34963
		}
	],
	"buffers":[
		{
			"byteLength":68720,
			"uri":"Monkey.bin"
		}
	]
}
